<?xml version="1.0" encoding="UTF-8"?>
<svg width="550px" height="550px" viewBox="0 0 550 550" version="1.1" xmlns="http://www.w3.org/2000/svg" xmlns:xlink="http://www.w3.org/1999/xlink">
    <title>Skrill</title>
    <defs>
        <linearGradient x1="-1.11022302e-14%" y1="50%" x2="100%" y2="50%" id="linearGradient-1">
            <stop stop-color="#841F6B" offset="0%"></stop>
            <stop stop-color="#512558" offset="100%"></stop>
        </linearGradient>
    </defs>
    <g id="Page-1" stroke="none" stroke-width="1" fill="none" fill-rule="evenodd">
        <g id="Fixtures-Copy-2" transform="translate(-100.000000, -100.000000)">
            <g id="Skrill" transform="translate(100.000000, 100.000000)">
                <path d="M275,0 C426.878306,-2.78995922e-14 550,123.121694 550,275 C550,426.878306 426.878306,550 275,550 C123.121694,550 1.85997282e-14,426.878306 0,275 C-1.85997282e-14,123.121694 123.121694,2.78995922e-14 275,0 Z" id="Rectangle" fill="url(#linearGradient-1)"></path>
                <path d="M344.856949,246.259327 C352.11146,246.259327 357.991551,240.382058 357.991551,233.134602 C357.991551,225.882913 352.11146,220 344.856949,220 C337.610904,220 331.733636,225.882913 331.733636,233.134602 C331.733636,240.382058 337.610904,246.259327 344.856949,246.259327 L344.856949,246.259327 Z M244.263225,253.347327 C243.670559,254.836047 239.404777,266.885506 229.088159,279.37382 L229.088159,225.976046 L201.599757,231.408816 L201.599757,328.19819 L229.088159,328.19819 L229.088159,298.279858 C237.049636,310.220662 240.980985,328.19819 240.980985,328.19819 L273.906391,328.19819 C270.649551,314.6586 256.402995,289.69326 256.402995,289.69326 C269.189053,273.482441 274.805267,256.209056 275.698499,253.347327 L244.263225,253.347327 L244.263225,253.347327 Z M316.528937,252.336973 C291.907908,253.127194 279.409715,264.173355 279.409715,286.131621 L279.409715,328.19819 L306.270174,328.19819 L306.270174,293.894132 C306.270174,280.745418 307.991727,275.109449 323.594359,274.571817 L323.594359,252.722206 C320.968285,252.164818 316.528937,252.336973 316.528937,252.336973 L316.528937,252.336973 Z M155.498827,264.005433 C152.131921,263.783889 144.336955,263.280123 144.336955,256.262678 C144.336955,247.794613 155.559505,247.794613 159.768843,247.794613 C167.170109,247.794613 176.755772,249.981832 183.601062,252.029351 C183.601062,252.029351 187.419523,253.375549 190.669307,254.754202 L190.971284,254.836047 L190.971284,231.644471 L190.556418,231.521705 C182.477819,228.695253 173.084067,225.976046 155.66816,225.976046 C125.639762,225.976046 115,243.469564 115,258.455541 C115,267.09435 118.70275,287.425608 153.092886,289.770871 C156.008237,289.950082 163.745348,290.395992 163.745348,297.647681 C163.745348,303.635017 157.41088,307.165611 146.757007,307.165611 C135.081492,307.165611 123.755931,304.188171 116.876775,301.364542 L116.876775,325.250384 C127.175048,327.949835 138.784241,329.298855 152.390154,329.298855 C181.751098,329.298855 194.901222,312.747958 194.901222,296.343817 C194.901222,277.74399 180.186178,265.659252 155.498827,264.005433 L155.498827,264.005433 Z M331.541725,328.19819 L358.184873,328.19819 L358.184873,253.431993 L331.541725,253.431993 L331.541725,328.19819 Z M408.352618,230.742772 L408.352618,328.19819 L435,328.19819 L435,225.976046 L408.352618,230.742772 L408.352618,230.742772 Z M369.470922,230.742772 L396.092904,225.976046 L396.092904,328.19819 L369.470922,328.19819 L369.470922,230.742772 L369.470922,230.742772 Z" id="Fill-1" fill="#FFFFFF" fill-rule="nonzero"></path>
            </g>
        </g>
    </g>
</svg>